<svg
  xmlns="http://www.w3.org/2000/svg"
  width="600"
  height="800"
  viewBox="0 0 600 800"
  fill="none"
>
  <!-- Background -->
  <rect width="600" height="800" rx="30" fill="#1a1c2c" />
  
  <!-- Profile Picture -->
  <circle cx="300" cy="120" r="60" fill="#c8ccd4" />
  <path
    d="M280 150h40v-10h-10v-30h-20v30h-10v10zm-20-40h10v10h-10v-10zm80 0h10v10h-10v-10z"
    fill="#8bd15d"
  />
  
  <!-- Name and Title -->
  <text
    x="50%"
    y="220"
    text-anchor="middle"
    font-family="Arial, sans-serif"
    font-size="48"
    font-weight="bold"
    fill="#fff"
  >
    Hi, I'm David.
  </text>
  
  <text
    x="50%"
    y="260"
    text-anchor="middle"
    font-family="Arial, sans-serif"
    font-size="18"
    fill="#c8ccd4"
  >
    CSIS Student, Software Developer, and Entrepreneur
  </text>
  
  <text
    x="50%"
    y="290"
    text-anchor="middle"
    font-family="Arial, sans-serif"
    font-size="18"
    fill="#c8ccd4"
  >
    Founder & CTO @ 
    <tspan fill="#4081ec">Haruhime Holdings</tspan>
  </text>
  
  <!-- Section Divider -->
  <line x1="50" y1="320" x2="550" y2="320" stroke="#2c2e4a" stroke-width="2" />
  
  <!-- Languages Section -->
  <text
    x="50%"
    y="360"
    text-anchor="middle"
    font-family="Arial, sans-serif"
    font-size="24"
    font-weight="bold"
    fill="#fff"
  >
    Languages
  </text>
  
  <!-- Language Icons -->
  <svg x="120" y="380" width="60" height="60" viewBox="0 0 32 32" fill="#f0db4f">
    <path d="M32 16A16 16 0 1 1 0 16a16 16 0 0 1 32 0"></path>
    <path d="M16.446 24.748c1.666 0 2.89-.717 2.89-2.048 0-1.012-.764-1.627-2.067-2.237l-.735-.35c-.212-.102-.5-.228-.5-.468 0-.344.268-.56.77-.56.45 0 .812.156 1.157.48l.792-.97c-.525-.47-1.158-.672-1.944-.672-1.446 0-2.37.935-2.37 2.256 0 1.037.646 1.627 1.606 2.046l.666.3c.226.104.636.244.636.57 0 .37-.336.625-.908.625-.742 0-1.212-.404-1.607-.932l-.835.96c.563.764 1.286 1.227 2.437 1.227zm-7.697-.052c.526 0 .886-.094 1.17-.302.372-.27.63-.7.774-1.302l1.616-7.582h-2.065l-.656 4.196h-.032l-.62-4.196H6.86l1.56 7.125c.095.418.237.732.422.94.22.247.523.38.907.38zm16.92-7.282h-2.036l-2.974 7.582h2.046l.416-1.226h2.533l.43 1.226h2.066zm-2.77 4.478l.988-2.774.96 2.774zm-8.104 3.972c1.666 0 2.89-.717 2.89-2.048 0-1.012-.764-1.627-2.067-2.237l-.735-.35c-.212-.102-.5-.228-.5-.468 0-.344.268-.56.77-.56.45 0 .812.156 1.157.48l.792-.97c-.525-.47-1.158-.672-1.944-.672-1.446 0-2.37.935-2.37 2.256 0 1.037.646 1.627 1.606 2.046l.666.3c.226.104.636.244.636.57 0 .37-.336.625-.908.625-.742 0-1.212-.404-1.607-.932l-.835.96c.563.764 1.286 1.227 2.437 1.227z"></path>
  </svg>

  <!-- More language and tool icons would follow in the same format -->

  <!-- Connect with Me Section -->
  <text
    x="50%"
    y="680"
    text-anchor="middle"
    font-family="Arial, sans-serif"
    font-size="24"
    font-weight="bold"
    fill="#fff"
  >
    Connect with Me
  </text>
  
  <!-- Connect Icons -->
  <svg x="200" y="700" width="40" height="40" viewBox="0 0 24 24" fill="#181717">
    <path d="M12 .297c-6.63 0-12 5.373-12 12 0 5.303 3.438 9.8 8.205 11.385.6.11.82-.255.82-.577v-2.173c-3.338.724-4.033-1.416-4.033-1.416-.546-1.39-1.333-1.761-1.333-1.761-1.089-.744.083-.729.083-.729 1.205.085 1.838 1.24 1.838 1.24 1.07 1.835 2.807 1.305 3.492.997.108-.775.418-1.305.762-1.604-2.665-.307-5.466-1.332-5.466-5.93 0-1.31.47-2.38 1.235-3.222-.123-.307-.535-1.542.117-3.215 0 0 1.008-.323 3.301 1.23.957-.266 1.983-.399 3.004-.404 1.02.005 2.047.138 3.006.404 2.29-1.553 3.297-1.23 3.297-1.23.653 1.673.241 2.908.118 3.215.767.842 1.233 1.912 1.233 3.222 0 4.61-2.807 5.617-5.481 5.915.43.37.824 1.102.824 2.222v3.293c0 .323.218.694.824.576C20.565 22.094 24 17.598 24 12.297c0-6.627-5.373-12-12-12z"></path>
  </svg>
</svg>
